<?xml version="1.0" encoding="UTF-8"?>
<svg id="Calque_1" data-name="Calque 1" xmlns="http://www.w3.org/2000/svg" xmlns:xlink="http://www.w3.org/1999/xlink" viewBox="0 0 512 512">
  <defs>
    <style>
      .cls-1 {
        fill: none;
      }

      .cls-2 {
        fill: #464545;
      }

      .cls-3 {
        fill: #030304;
      }

      .cls-4 {
        fill: #504f4f;
      }

      .cls-5 {
        fill: #1e1e1c;
      }

      .cls-6 {
        fill: #010202;
      }

      .cls-7 {
        clip-path: url(#clippath);
      }
    </style>
    <clipPath id="clippath">
      <rect class="cls-1" x="-24.71" y="-17.33" width="562.8" height="562.8"/>
    </clipPath>
  </defs>
  <g class="cls-7">
    <path class="cls-6" d="M189.28,374.49c-.24-.06-.48-.14-.72-.2.28.19.53.26.72.2"/>
    <path class="cls-6" d="M346.56,281.56c-1.01-2.8-3.62-8.42-4.43-9.85-2.77-4.87-6.42-8.63-6.42-8.63-3.02-3.52-4.32-5.31-14.95-13.6-14.27-10.83-25.69-14.45-42-19.2-2.95-.86-15.05-4.08-17.95-5.09-30.35-10.63-53.05-31.5-38.36-62.38.64-1.34,1.86-3.13,2.69-3.95,27.71-27.18,65.98-19.63,88.24,7.96,11.85,16.82,12.73,19.61,17.09,29.91.57,1.05,2.03.95,3.07.42,2-1.02,1.37-37.76,1.25-43.16-.58-9.55.72-20.12-6.92-13.79-1.06.88-2.47,1.22-3.84,1.08-4.53-.46-10.03-1.55-14.13-2.47l-21.43-6.13c-20.29-3.26-19.67-5.05-40.11-2.1-26.11,3.77-46.67,17.51-57.13,42.44-6.69,15.95-11.02,28.47-3.78,50.68,4.25,13.05,12.6,19.64,20.04,25.8,2.24,1.59,7.33,5.34,7.33,5.34,4.83,3.31,14.43,8,20.67,10.59,3.26,1.36,5.51,2.29,9.34,3.6,2.44.84,8.9,2.85,11.1,3.7,8.91,3.45,16.3,4.82,25.27,8.94,6.54,3.01,12.72,6.95,17.98,11.76,15.11,13.83,16.37,42.11,3.82,58.2-1.38,1.76-6.28,6.37-6.28,6.37-4.17,3.35-8.2,6.98-13.03,9.07-13.59,5.86-27.14,4.33-40.7-1.35-.26-.11-.97-.53-.97-.53-24.54-14.33-42.47-42.24-50.29-60.46-1.51-2.84-3.21-1.59-4.02-.06-.67,1.26-.52,1.66-.97,4.64-.38,3.57-.89,6.99-1.14,13.66-.61,6.7-3.13,37.76.15,47.91.58,1.79,1.86,2.76,2.81,3.41.24.06.47.14.72.2.03,0,.06,0,.09-.01,9.88-6.36,12.88-6.54,24.6-4.81,25.12,6.5,45.69,14.56,75.15,8.1,6.34-1.39,10.67-2.79,12.54-3.53,8.97-3.53,16.42-6.5,23-11.87,8.47-6.92,10.42-8.83,15.85-18.54,11.85-17.51,12.43-42.32,6.05-62.27"/>
    <path class="cls-6" d="M460.89,169.45s-1.78-8.98-1.95-9.72c-.89-4.01-7.48-30.69-8.35-34.12-1-3.93-4.24-15.94-6.21-23.07-.95-3.27-8.83-26.02-10.04-27.66-.65-.88-1.86-5.59-6.34-5.65-21.22.27-39.27.31-60.38-1.89-14.13-2.71-27.91-7.01-41.32-12.92-28.38-11.32-55.25-38.95-64.58-47.48-.74-.68-1.87-.69-2.64-.05-2.35,1.93-2.91,3.02-8.84,9.06-2.85,3.34-6.93,7.84-13.01,12.5l-3.93,2.75c-3.69,2.61-6.62,4.43-11.59,7.71-7.68,5.11-14.9,9.62-23.4,13.93-14.23,6.1-28.71,11.12-43.74,14.5-29.55,7.56-47.06,3.94-64.27,3.32-1.05-.04-2.01.61-2.35,1.6l-10.19,30.13c-4.15,15.82-8.08,26.2-12.64,41.86-3.22,9.97-6.59,28.64-8.76,42.59,0,0-4.14,25.38-2.78,60.61,1.7,22.98,4.69,46.23,9.85,68.12,3.23,10.15,6.17,19.72,11.58,33.06,8.61,18.55,18.48,35.63,36.77,53.35,8.63,9.5,35.57,32.21,48.67,40.75,4.64,2.69,38.2,25.03,38.2,25.03l14.01,9.1c8.91,5.5,31.85,20.66,33.94,22.09,4.78,3.29,13.06,10.04,19.6,5.51,9.44-6.55,18.28-13.84,27.81-19.66,7.59-4.91,11.92-8.57,22.68-15.34l25.67-15.13c18.77-12.31,34.72-24.23,51.79-39.12,9.41-9.27,8.53-8.47,12.02-12.19,5.27-5.61,21.55-30.04,23.18-33.73l5.43-9.97c3.35-7.58,3.97-8.4,6.71-15.21,9.69-27.5,17.22-52.94,20.14-80.66,1.48-14.07,2.92-21.83,2.96-42.27-.45-20.93-1.09-33.49-3.69-51.73M436.06,284.4c-2.54,15.3-6.33,32.18-12.91,46.51-12.94,35.87-40.87,65.77-71.19,87.84-8.94,6.33-16.26,10.7-24.79,16.31-7.86,5.16-18.56,11.83-22.81,14.58-13.61,9.27-27.36,18.76-29.78,20.28-.17.49-6.18,3.81-6.41,4.27-9.36,5.32-11.57,5.32-18.14,1.03-8.53-5.95-39.68-27.55-56.72-38.37-8.81-4.66-16.99-9.83-24.53-15.5-4.98-3.29-9.76-6.75-14.33-10.36-23.9-18.29-40.43-42.99-43.66-47.73-3.12-4.12-7.65-14.09-7.95-14.75-13.37-29.62-20.83-57.8-25.74-88.66-2.41-16.15-1.63-34.89-.44-51.35,1.09-15.18,3.99-38.57,8.96-52.6.13-.38,6.49-23.6,7.1-26.18.85-3.55,8.35-35.47,12.79-37.87,4.56-2.46,10.74-.03,20.66.05,28.24-2.85,56.99-7.96,82.64-20.67,17.71-9.34,34.37-20.23,50-32.67,3.06-2.48,4.08-1.84,6.43.5,3.96,3.76,8.64,7.33,12.09,9.98l10.23,6.74c14.47,9.86,30.44,16.79,46.51,23.2,3.48,1.44,3.17,1.66,9.04,3.88,22.42,7.81,45.2,10.62,68.59,10.13,1.75.22,2.89,1.29,3.72,2.79,6.73,11.44,10.42,25.08,13.99,38.2,6.11,22.74,11.75,72.36,11.77,72.76,1.45,26.07.16,52.37-5.1,77.67"/>
    <path class="cls-3" d="M419.67,217.4c-.24-14.74-.76-17.64-1.59-24.13-.4-6.12-4.43-28.11-6.51-36.44,0,0-1.6-6.23-1.65-6.45-1.23-5.19-7.81-27.98-11.48-34.61-.57-1.02-1.6-1.64-2.77-1.68-26.02-1.01-60.86-9.31-79.69-17.03-12.73-5.22-35.72-19.86-46.93-28.71-5.94-4.66-6.96-5.2-12.69-.54l-6.96,5.45c-2.66,2.16-4.22,3.5-12.64,8.69-17.17,10.61-51.29,22.03-62.82,25.45-7.63,2.25-26.15,4.18-39.35,5.38-7.29.52-13.92.85-15.72,6.54-4.91,10.69-10.3,31.34-12.56,38.86-1.93,7.52-2.18,9.7-2.99,13.93-9.92,51.85-6.41,114.12,12.25,152.91,2.87,6.92,5.63,11.91,5.63,11.91,5.95,10.63,10.06,17.36,10.06,17.36,5.24,7.62,5.43,8.09,10.07,14.43,4.65,5.74,13.25,14.98,20.58,21.25,11.3,9.3,8.9,7.13,20.26,15.5,0,0,21.28,12.64,26.27,15.5,4.29,2.19,17.48,12.14,22.59,15.1,7.77,5.46,10.72,8.03,23.57,15.76,1.93,1.4,6.3.48,7.41-.15,6.94-3.87,14.64-9.78,22.92-14.72,10.65-6.4,18.09-10.9,28.52-16.97,5.23-2.93,16.69-10.81,20.86-13.42,2.55-1.6,18.37-13.98,23.69-18.51,5.14-4.38,15.84-15.39,21.1-22.21,9.99-12.96,18.51-29.25,26.17-48.07,4.23-10.41,6.13-21.59,8.87-31.9,2.83-13.51,4.67-21.92,5.27-31.54.3-4.83.51-28.72.25-36.95M410.96,253.78c-1.14,13.65-3.61,19.42-5.44,27.22-1.23,5.23-3.77,15.3-5.16,20.16-3.41,11.85-9.58,24.65-14.58,35.37-5.95,10.39-13.06,20.5-20.69,30.07-5.84,7.33-10.79,10.24-22.52,18.59-8.64,6.38-13.98,9.29-22.26,14.82-5.14,3.45-15.92,9.98-19.76,12.35-4.07,2.51-11.63,7.98-20.3,13.21-9.27,6.09-20.24,14.76-22.1,14.48-4.05-.61-11.85-6.9-16.68-10.04-4.49-2.92-4.49-3.01-11.61-7.89l-9.51-6.5c-5.26-3.34-9.22-6.2-15.43-10.4-5.44-3.45-7.37-5.31-13.16-9.17-2.41-1.93-23.71-16.03-28.15-19.93-4.35-3.49-5.07-3.64-10.3-9.42-7.4-8.17-18.73-27.26-24.56-36.62-2.62-4.21-7.63-16.04-11.04-27.54-2.61-8.8-3.99-14.12-5.82-25.98-4.06-23.03-3.63-57.16-2.38-69.28.84-7.07,1.15-10.73,2.51-17.37.89-3.82,2.2-9.11,2.55-10.92,1.23-6.45.32-1.42,1.74-8.91,1.65-8.82,2.57-16.87,5.12-25.55,1.77-5.94,2.99-10.57,4.83-14.38,1.31-2.7,2.35-4,5.62-4.04,8.52-.11,11.89.07,20.93-.82,14.98-2.22,26.5-5.85,38.29-9.13l12.85-4.34c4.04-1.31,3.76-1.3,8.62-3.14,13.27-6.16,25.03-11.3,36.29-19.5,8.77-6.47,13.77-13.69,23.48-3.7,7.63,6.8,12.72,9.83,16.45,12.36,5.54,3.18,6.82,4.21,9.13,5.54,5.42,3.11,10.47,5.35,14.18,6.58,11.19,3.73,26.1,7.68,33.78,9.92,14.93,4.12,31.06,5.29,36.07,4.8,5.83-.58,10.79-1.67,11.47.4,2.19,4.39,5.3,16.7,7.47,25.11,2.77,10.74,2.53,12,6.61,30.61,3.28,14.53,4.39,34.33,4.9,40.36.84,15.32-.18,17.49-1.44,32.6"/>
    <path class="cls-3" d="M188.68,374.33v.28s.01-.28.01-.28c0,0,0,0-.01,0"/>
    <path class="cls-3" d="M188.71,374.1s-.02-.05-.02-.07v.3s0,0,.01,0v-.23Z"/>
    <path class="cls-3" d="M188.82,374.45s.04-.04.06-.06c-.03,0-.06-.02-.09-.03,0,.03.02.06.03.09"/>
    <path class="cls-5" d="M293.93,108.56c.52-.1,1.52.49,2.04.63"/>
    <path class="cls-2" d="M319.85,250.8l-1.29-1.29c.56.25.96.8,1.29,1.29"/>
    <path class="cls-4" d="M330.18,259.85c-.42-.29-1.08-.82-1.29-1.29.48.38.91.82,1.29,1.29"/>
  </g>
</svg>